# xmcd
# Track frame offsets:
# 150
# 9301
# 19902
# 33757
# 52751
# 67111
# 75114
# 87934
# 102308
# 112049
# 125191
# 138403
# 151392
# 162328
#
# Disc length: 2360 seconds
# Revision: 0
# Processed by: cddbd v1.4PL0 Copyright (c) Steve Scherf et al.
# Submitted via: VisiTrax 2.9.5.181 - For more info visit www.synapsa.com
#
DISCID=aa09360e
DTITLE=Johnny Cash - Hello, I'm Johnny Cash (Sony Special)
DYEAR=1900
DGENRE=
TTITLE0=J. Carter - H. Carter - A. Carter - Rosanna's Going Wild
TTITLE1=C. Perkins - Daddy Sang Bass
TTITLE2=J. Cash - Don't Take Your Guns To Town
TTITLE3=P. La Farge - The Ballad Of Ira Hayse
TTITLE4=M. Wilkin - D. Dill - The Long Black Veil
TTITLE5=J. Cash - Five Feet High And Rising
TTITLE6=J.H. Clement - The One On The Right Is On The Left
TTITLE7=E.T. Rouse - Orange Blossom Special
TTITLE8=J. Cash - What Do I Care
TTITLE9=J. Cash - Man In Black
TTITLE10=B. Dylan - Don't Think Twice, It's All Right
TTITLE11=J. Cash - R. Orbison - See Ruby Fall
TTITLE12=B.E. Wheeler - Blistered
TTITLE13=J. Carter - J. Cash - M. Kilgore - Happy To Be With You
EXTD=
EXTT0=
EXTT1=
EXTT2=
EXTT3=
EXTT4=
EXTT5=
EXTT6=
EXTT7=
EXTT8=
EXTT9=
EXTT10=
EXTT11=
EXTT12=
EXTT13=
PLAYORDER=
